<?xml version="1.0" encoding="UTF-8" standalone="no"?>
<svg
   xmlns:dc="http://purl.org/dc/elements/1.1/"
   xmlns:cc="http://creativecommons.org/ns#"
   xmlns:rdf="http://www.w3.org/1999/02/22-rdf-syntax-ns#"
   xmlns:svg="http://www.w3.org/2000/svg"
   xmlns="http://www.w3.org/2000/svg"
   xmlns:sodipodi="http://sodipodi.sourceforge.net/DTD/sodipodi-0.dtd"
   xmlns:inkscape="http://www.inkscape.org/namespaces/inkscape"
   width="7.5597577mm"
   height="7.5476756mm"
   viewBox="0 0 7.5597577 7.5476756"
   version="1.1"
   id="svg8"
   inkscape:version="1.0.1 (3bc2e813f5, 2020-09-07)"
   sodipodi:docname="orczylogo.svg">
  <defs
     id="defs2" />
  <sodipodi:namedview
     id="base"
     pagecolor="#ffffff"
     bordercolor="#666666"
     borderopacity="1.0"
     inkscape:pageopacity="0.0"
     inkscape:pageshadow="2"
     inkscape:zoom="1.979899"
     inkscape:cx="-5.1736304"
     inkscape:cy="55.66697"
     inkscape:document-units="mm"
     inkscape:current-layer="layer1"
     inkscape:document-rotation="0"
     showgrid="false"
     fit-margin-top="0"
     fit-margin-left="0"
     fit-margin-right="0"
     fit-margin-bottom="0"
     inkscape:window-width="1920"
     inkscape:window-height="1017"
     inkscape:window-x="1912"
     inkscape:window-y="-8"
     inkscape:window-maximized="1" />
  <metadata
     id="metadata5">
    <rdf:RDF>
      <cc:Work
         rdf:about="">
        <dc:format>image/svg+xml</dc:format>
        <dc:type
           rdf:resource="http://purl.org/dc/dcmitype/StillImage" />
        <dc:title></dc:title>
      </cc:Work>
    </rdf:RDF>
  </metadata>
  <g
     inkscape:label="Réteg 1"
     inkscape:groupmode="layer"
     id="layer1"
     transform="translate(-113.14196,-50.374188)">
    <path
       style="fill:#e41a28;fill-opacity:1;stroke-width:0.0352298"
       d="m 116.50631,57.902082 c -1.1028,-0.134341 -2.05851,-0.706964 -2.68409,-1.608194 -0.89087,-1.283434 -0.90812,-2.972608 -0.0435,-4.260427 0.29329,-0.436856 0.41796,-0.56804 0.93101,-0.979667 0.11305,-0.0907 0.54592,-0.33003 0.75762,-0.418875 0.17805,-0.07472 0.57158,-0.188134 0.86709,-0.249886 0.0576,-0.01205 0.0619,0.10376 0.0705,1.912636 l 0.009,1.925458 h 0.51083 0.51083 l 0.009,-1.92447 0.009,-1.924469 0.21989,0.04649 c 1.27887,0.270383 2.31493,1.139913 2.77446,2.328514 0.46888,1.212751 0.27925,2.611979 -0.49624,3.661719 -0.43005,0.582135 -1.12232,1.07936 -1.839,1.320862 -0.46522,0.156766 -1.13503,0.227766 -1.60668,0.17031 z m 1.16967,-1.102791 c 0.11279,-0.0317 0.34267,-0.124852 0.51083,-0.206996 0.25475,-0.124443 0.36509,-0.208141 0.66151,-0.501819 0.31011,-0.307228 0.37677,-0.395421 0.51944,-0.687149 0.21521,-0.44008 0.27383,-0.672269 0.29559,-1.170639 0.0153,-0.349235 0.006,-0.463759 -0.0609,-0.739827 -0.13226,-0.546905 -0.39763,-0.999463 -0.82187,-1.401567 -0.17119,-0.162253 -0.5349,-0.419336 -0.59623,-0.421429 -0.0145,-4.93e-4 -0.0264,0.278864 -0.0264,0.6208 v 0.621701 l 0.12396,0.151283 c 0.48003,0.585818 0.48819,1.535636 0.0182,2.116526 -0.34365,0.424712 -0.74209,0.638454 -1.25187,0.671574 -0.62331,0.04049 -1.12693,-0.190846 -1.51588,-0.696326 -0.4505,-0.585457 -0.4341,-1.557037 0.0354,-2.095065 l 0.1228,-0.140735 6.7e-4,-0.62533 c 4e-4,-0.343931 -0.0112,-0.625279 -0.0258,-0.625218 -0.0655,2.8e-4 -0.46812,0.300397 -0.67217,0.501024 -0.37995,0.37357 -0.61519,0.78663 -0.7414,1.301828 -0.22222,0.90714 0.0251,1.856555 0.6608,2.537078 0.37817,0.404801 0.72524,0.618565 1.27241,0.783691 0.27308,0.08241 0.34291,0.08922 0.79268,0.0773 0.31168,-0.0083 0.5687,-0.03428 0.6983,-0.07071 z"
       id="path24" />
  </g>
</svg>
